# xmcd
#
# Track frame offsets: 
#        150
#        19724
#        38308
#        53693
#        73661
#        84881
#        104825
#        121913
#        138383
#        162204
#        174977
#
# Disc length: 2557 seconds
#
# Revision: 0
# Processed by: cddbd v1.5.2PL0 Copyright (c) Steve Scherf et al.
# Submitted via: ExactAudioCopy v1.3
#
DISCID=8209fb0b
DTITLE=Sunday Wilde - Sunday Wilde and 1 Eyed Jacks
DYEAR=2019
DGENRE=Blues
TTITLE0=Evil
TTITLE1=Love Is
TTITLE2=Dead Man's Clothes
TTITLE3=Show Me Mercy
TTITLE4=Dead Presidents
TTITLE5=It Hurts Me Too
TTITLE6=My Baby's Dead
TTITLE7=Captured Me
TTITLE8=Spirits Up My Friend
TTITLE9=Swear You're Cheatin
TTITLE10=I Guess I Didn't Hear You Right
EXTD=
EXTT0=
EXTT1=
EXTT2=
EXTT3=
EXTT4=
EXTT5=
EXTT6=
EXTT7=
EXTT8=
EXTT9=
EXTT10=
PLAYORDER=
